<svg id="Capa_1" enable-background="new 0 0 511.727 511.727" height="512" viewBox="0 0 511.727 511.727" width="512" xmlns="http://www.w3.org/2000/svg"><g><g><path d="m394.942 138.323c-.021.01-23.422 23.347-34.328 34.231-31.891-39.351-87.021-65.36-149.686-65.36-25.644 0-49.997 4.871-72.045 12.718-2.726-13.299-6.024-30.236-6.711-35.528 0 0 44.289-14.051 72.659-16.971 8.33-.859 16.702-1.245 25.085-1.192 57.342.311 110.486 19.826 152.574 59.306.763.721 12.452 12.796 12.452 12.796z" fill="#fef48b"/></g><g><path d="m394.942 138.327c-.02.01-23.421 23.341-34.328 34.228-31.891-39.352-87.024-65.36-149.687-65.36-25.639 0-49.999 4.874-72.042 12.714-1.119-5.424-2.317-11.456-3.416-17.059 22.323-6.482 55.43-11.557 73.876-12.219 75.921-2.725 106.85 8.635 142.227 45.544 4.353 4.541 11.556 4.69 16.011.249 4.1-4.088 8.602-8.575 12.847-12.809.689.639 1.378 1.278 2.057 1.918.769.719 12.455 12.794 12.455 12.794z" fill="#fef056"/></g><g><path d="m489.226 196.283c-3.77-5.636-10.143-10.031-16.906-9.527-4.904.366-9.243 3.165-13.343 5.879-12.968 8.583-25.935 17.167-38.904 25.751-3.518 2.329-7.389 4.118-11.5 5.067-9.683 2.235-15.682-.946-20.594-6.095-3.336-3.496-5.84-7.688-7.702-12.146-23.807-56.978-90.625-98.016-169.347-98.016-54.824 0-104.559 20.682-144.569 57.545-6.784 6.251-13.225 12.876-19.332 19.788-13.59 15.383-25.555 32.254-35.372 50.291-5.575 10.243-5.503 22.617.08 32.855 27.459 50.353 64.717 78.824 68.149 81.383 32.631 28.369 79.26 46.132 131.043 46.132 78.722 0 145.54-41.038 169.347-98.016 1.863-4.459 4.367-8.65 7.702-12.146 4.913-5.149 10.911-8.331 20.595-6.095 4.111.949 7.982 2.738 11.5 5.067 12.968 8.583 25.936 17.167 38.904 25.751 4.1 2.714 8.439 5.513 13.343 5.879 6.762.504 13.135-3.891 16.906-9.528 10.365-15.497 14.352-36.699 15.283-54.908-.931-18.211-4.917-39.413-15.283-54.911z" fill="#b3dafe"/></g><g><path d="m504.508 251.189c-.929 18.208-4.914 39.412-15.281 54.913-3.775 5.633-10.148 10.028-16.909 9.528-4.904-.37-9.239-3.166-13.344-5.883-12.964-8.579-25.928-17.169-38.902-25.748-3.516-2.327-7.391-4.115-11.496-5.064-9.688-2.237-15.681.939-20.595 6.092-3.336 3.496-5.843 7.691-7.701 12.145-23.811 56.98-90.629 98.02-169.353 98.02-51.777 0-98.41-17.768-131.04-46.134-3.436-2.557-40.69-31.032-68.147-81.381-3.346-6.143-4.714-13.054-4.065-19.816 27.067 46.893 61.725 73.37 65.021 75.827 32.63 28.366 79.263 46.134 131.04 46.134 78.724 0 145.543-41.04 169.354-98.021 1.858-4.455 4.365-8.649 7.701-12.145 4.914-5.154 10.907-8.33 20.595-6.093 4.115.949 7.98 2.737 11.496 5.064 12.974 8.58 25.938 17.169 38.902 25.749 4.105 2.717 8.44 5.513 13.344 5.883 6.762.499 13.144-3.895 16.909-9.528 10.367-15.501 14.352-36.705 15.281-54.913-.29-5.823-.909-11.956-1.938-18.108 5.882 13.605 8.409 29.436 9.128 43.479z" fill="#8ac9fe"/></g><g><path d="m243.109 192.923c-15.826-7.76-37.378 14.476-46.428 22.318v27.81 16.282 27.809c9.05 7.842 30.601 30.078 46.428 22.318 14.074-6.901 17.91-27.127 19.179-39.504 1.96-19.116.832-37.605-4.668-56.332-2.238-7.617-5.991-16.522-14.511-20.701z" fill="#fef48b"/></g><g><path d="m262.284 269.956c-1.268 12.375-5.104 32.6-19.177 39.502-6.392 3.136-13.723 1.378-20.785-2.357.399-.15.799-.33 1.188-.519 14.073-6.901 17.908-27.127 19.177-39.502 1.958-19.117.829-37.604-4.674-56.331-1.818-6.192-4.634-13.234-10.208-17.908 5.294-1.878 10.557-2.247 15.301.08 8.52 4.185 12.275 13.084 14.512 20.705 5.505 18.726 6.633 37.214 4.666 56.33z" fill="#fef056"/></g><g><path d="m218.26 445.36c-39.179-9.919-53.788-40.468-58.833-56.247 16.305 3.95 33.598 6.075 51.502 6.075 2.039 0 4.068-.032 6.086-.086.88 15.478 5.539 31.708 9.006 41.938 1.653 4.875-2.781 9.587-7.761 8.32z" fill="#fef48b"/></g><g><path d="m218.257 445.362c-5.134-1.298-9.848-2.956-14.173-4.894 1.438-1.628 2.058-3.945 1.258-6.302-3.276-9.678-7.631-24.73-8.829-39.432 4.754.3 9.558.459 14.412.459 2.038 0 4.075-.04 6.093-.09.879 15.481 5.533 31.711 8.999 41.939 1.659 4.875-2.776 9.589-7.76 8.32z" fill="#fef056"/></g><g><path d="m437.659 245.735c1.054 0 2.124-.224 3.144-.696 2.122-.983 20.94-9.769 28.206-15.537 3.24-2.573 3.782-7.284 1.209-10.524s-7.285-3.781-10.524-1.209c-4.979 3.952-19.87 11.213-25.188 13.677-3.753 1.739-5.387 6.192-3.648 9.946 1.267 2.734 3.974 4.343 6.801 4.343z"/><path d="m434.506 267.694c5.315 2.462 20.202 9.719 25.188 13.677 1.378 1.094 3.021 1.625 4.653 1.625 2.207 0 4.393-.971 5.872-2.833 2.572-3.24 2.031-7.952-1.209-10.525-7.266-5.768-26.084-14.555-28.206-15.538-3.756-1.742-8.207-.105-9.945 3.648-1.741 3.754-.107 8.207 3.647 9.946z"/><circle cx="94.265" cy="212.571" r="11.292"/><path d="m495.453 192.118c-5.738-8.576-14.813-13.5-23.689-12.833-6.978.521-12.725 4.325-16.92 7.103l-38.904 25.751c-2.963 1.961-6.007 3.312-9.05 4.014-6.623 1.528-10.071-.385-13.489-3.967-2.467-2.586-4.556-5.905-6.21-9.865-4.311-10.318-9.904-20.063-16.597-29.142 11.545-11.519 28.68-28.605 29.564-29.479 2.981-2.89 3.075-7.584.168-10.588-4.409-4.555-11.922-12.306-12.709-13.049-12.843-12.046-26.959-22.519-41.959-31.128-3.588-2.058-8.166-.82-10.226 2.768s-.82 8.166 2.768 10.226c13.993 8.031 27.17 17.808 39.112 29.009.488.475 3.721 3.799 7.113 7.295-1.953 1.94-4.5 4.48-7.853 7.823-5.013 4.999-10.682 10.654-15.505 15.466-2.843-3.152-5.837-6.199-8.956-9.148l8.873-11.448c2.534-3.27 1.939-7.976-1.331-10.51-3.27-2.535-7.975-1.938-10.51 1.331l-8.382 10.814c-.478-.377-.95-.76-1.432-1.133-.019-.015-.037-.03-.056-.044-4.151-3.18-8.391-6.145-12.737-8.938l6.896-10.447c2.279-3.453 1.328-8.1-2.125-10.379-3.454-2.279-8.099-1.328-10.378 2.125l-7.32 11.089c-1.068-.574-2.14-1.145-3.223-1.702-3.019-1.554-6.113-3.029-9.257-4.441l4.124-12.038c1.341-3.914-.745-8.173-4.659-9.514-3.913-1.34-8.174.745-9.514 4.659l-3.851 11.241c-4.813-1.76-9.705-3.354-14.641-4.777l3.078-12.311c1.004-4.014-1.436-8.081-5.45-9.084-4.012-1.002-8.081 1.437-9.084 5.45l-3.073 12.289c-4.843-1.046-9.688-1.93-14.497-2.622-.587-.084-1.175-.153-1.763-.232l1.592-9.99c.652-4.085-2.133-7.925-6.218-8.576-4.086-.652-7.926 2.132-8.576 6.218l-1.727 10.833c-5.718-.386-11.45-.552-17.182-.51l-.658-9.652c-.281-4.127-3.845-7.253-7.982-6.964-4.128.281-7.246 3.855-6.964 7.982l.628 9.214c-5.863.428-11.674 1.094-17.428 1.985l-.928-7.299c-.521-4.103-4.264-7.011-8.376-6.486-4.104.522-7.008 4.272-6.486 8.376l1.046 8.222c-6.079 1.384-12.085 3.029-18.008 4.937-1.509-7.55-2.957-15.062-3.91-20.403 13.034-3.885 43.862-12.601 64.98-14.775 7.923-.817 16.088-1.21 24.277-1.152 27.606.15 53.96 4.885 78.329 14.074 3.868 1.459 8.192-.495 9.652-4.366s-.495-8.192-4.366-9.652c-34.645-13.063-72.636-17.592-109.426-13.807-28.804 2.964-72.319 16.698-74.158 17.281-3.455 1.096-5.63 4.509-5.163 8.104.666 5.133 3.398 19.202 5.539 29.85-24.866 10.01-48.092 24.771-68.997 44.032-6.785 6.251-13.47 13.094-19.87 20.337-14.198 16.07-26.423 33.454-36.337 51.67-6.801 12.495-6.77 27.457.083 40.023 26.587 48.752 62.318 77.706 69.211 83.015 3.277 2.524 7.982 1.914 10.506-1.364s1.914-7.981-1.364-10.506c-6.476-4.988-40.052-32.203-65.201-78.318-4.406-8.079-4.435-17.682-.077-25.688 9.377-17.229 20.953-33.685 34.406-48.913 10.133-11.469 20.983-21.932 33.025-31.315 35.789-27.896 79.825-43.488 125.262-43.488 73.812 0 139.09 37.54 162.435 93.412 2.363 5.657 5.456 10.512 9.194 14.43 11.676 12.24 28.317 10.931 41.649 2.104l38.904-25.751c3.133-2.075 6.684-4.425 9.764-4.655 3.925-.301 7.91 2.914 10.123 6.221 7.922 11.845 12.891 29.854 14.008 50.745-1.116 20.891-6.086 38.9-14.008 50.744-2.212 3.308-6.186 6.517-10.122 6.223-3.082-.23-6.632-2.581-9.765-4.656l-38.904-25.751c-13.022-8.621-30.195-9.902-41.65 2.105-3.736 3.916-6.83 8.771-9.193 14.428-23.345 55.874-88.623 93.413-162.435 93.413-36.32 0-71.022-8.977-100.354-25.961-3.579-2.075-8.164-.852-10.236 2.729-2.073 3.58-.852 8.164 2.729 10.236 15.636 9.054 32.667 15.988 50.598 20.693 6.834 18.66 23.498 47.29 62.754 57.228 1.146.291 2.306.433 3.457.433 3.853 0 7.59-1.59 10.276-4.493 3.468-3.75 4.603-9.085 2.962-13.924-2.877-8.488-6.314-20.39-7.886-32.405 73.842-4.594 137.857-44.486 161.96-102.172 1.654-3.958 3.742-7.276 6.207-9.86 6.678-7.003 15.34-4.723 22.543.045l38.903 25.75c4.196 2.778 9.942 6.583 16.922 7.104 8.875.664 17.952-4.256 23.688-12.833 2.088-3.123 3.921-6.412 5.531-9.805 5.556-11.709 8.521-24.554 10.038-37.376 1.64-13.854.315-26.847-2.908-40.405-2.559-10.751-6.494-21.333-12.664-30.559zm-323.789 207.189c.455.079.913.147 1.369.224 4.28.72 8.581 1.316 12.896 1.786 6.096.665 12.234 1.085 18.35 1.26 1.962.056 3.926.096 5.894.102 1.542 12.896 5.057 25.582 8.145 34.949-25.685-7.096-39.418-23.999-46.654-38.321z"/><path d="m143.366 332.77c-3.718 1.814-5.262 6.299-3.448 10.017 1.298 2.661 3.964 4.208 6.738 4.208 1.102 0 2.221-.244 3.279-.76 17.456-8.514 32.213-21.686 42.675-38.092 2.003-3.14 3.828-6.374 5.475-9.685 9.517 8.479 23.799 20.122 37.9 20.122 3.51 0 7.011-.722 10.422-2.395 13.045-6.397 20.895-21.694 23.332-45.466 2.169-21.155.555-40.522-4.933-59.208-2.4-8.171-6.919-19.685-18.399-25.315-17.3-8.483-36.857 7.479-48.708 18.072-10.554-20.852-27.941-38.085-49.929-48.195-3.758-1.727-8.207-.082-9.935 3.677s-.082 8.207 3.677 9.935c31.925 14.678 52.553 46.857 52.553 81.981 0 34.774-19.427 65.851-50.699 81.104zm61.78-115.046c8.163-7.382 25.148-22.741 34.665-18.075 4.764 2.336 8.04 7.297 10.621 16.086 4.93 16.785 6.371 34.271 4.403 53.457-1.848 18.031-7.044 29.629-15.025 33.543-9.521 4.662-26.502-10.693-34.664-18.074-.379-.343-.728-.656-1.083-.977 1.469-4.602 2.622-9.304 3.444-14.08 6.792 1.804 13.214 4.161 19.152 7.045 1.054.512 2.169.754 3.268.754 2.778 0 5.448-1.552 6.743-4.219 1.808-3.721.257-8.203-3.464-10.011-7.49-3.638-15.618-6.533-24.209-8.647.026-.952.027-5.4-.019-6.665 8.596-2.114 16.731-5.01 24.228-8.652 3.721-1.807 5.273-6.289 3.465-10.011-1.807-3.721-6.289-5.272-10.011-3.465-5.99 2.909-12.471 5.28-19.326 7.09-.866-4.722-2.06-9.354-3.547-13.873.436-.393.886-.798 1.359-1.226z"/></g></g></svg>